<mxfile host="Electron" modified="2023-11-25T13:45:31.279Z" agent="Mozilla/5.0 (Macintosh; Intel Mac OS X 10_15_7) AppleWebKit/537.36 (KHTML, like Gecko) draw.io/22.0.3 Chrome/114.0.5735.289 Electron/25.8.4 Safari/537.36" etag="BpxpRVu80PjtbSRrixT3" version="22.0.3" type="device">
  <diagram name="第 1 页" id="atiyN8v-rfrlf5Acp6FR">
    <mxGraphModel dx="1242" dy="907" grid="1" gridSize="10" guides="1" tooltips="1" connect="1" arrows="1" fold="1" page="1" pageScale="1" pageWidth="827" pageHeight="1169" math="0" shadow="0">
      <root>
        <mxCell id="0" />
        <mxCell id="1" parent="0" />
        <mxCell id="STGnz_FcKIcirEzFvU5I-5" value="" style="rounded=1;whiteSpace=wrap;html=1;shadow=0;" vertex="1" parent="1">
          <mxGeometry x="250" y="170" width="230" height="60" as="geometry" />
        </mxCell>
        <mxCell id="STGnz_FcKIcirEzFvU5I-6" value="&lt;font style=&quot;font-size: 15px;&quot;&gt;Tile Graph&lt;/font&gt;" style="text;html=1;strokeColor=none;fillColor=none;align=center;verticalAlign=middle;whiteSpace=wrap;rounded=0;" vertex="1" parent="1">
          <mxGeometry x="305" y="185" width="120" height="30" as="geometry" />
        </mxCell>
        <mxCell id="STGnz_FcKIcirEzFvU5I-11" value="" style="edgeStyle=orthogonalEdgeStyle;rounded=0;orthogonalLoop=1;jettySize=auto;html=1;strokeWidth=3;strokeColor=#E6E6E6;exitX=0.5;exitY=1;exitDx=0;exitDy=0;" edge="1" parent="1" source="STGnz_FcKIcirEzFvU5I-7" target="STGnz_FcKIcirEzFvU5I-9">
          <mxGeometry relative="1" as="geometry" />
        </mxCell>
        <mxCell id="STGnz_FcKIcirEzFvU5I-7" value="&lt;font color=&quot;#ffffff&quot; style=&quot;font-size: 15px;&quot;&gt;Operator Fusion&lt;/font&gt;" style="rounded=1;whiteSpace=wrap;html=1;fillColor=#b1ddf0;strokeColor=#10739e;" vertex="1" parent="1">
          <mxGeometry x="250" y="280" width="230" height="60" as="geometry" />
        </mxCell>
        <mxCell id="STGnz_FcKIcirEzFvU5I-8" value="" style="endArrow=classic;html=1;rounded=0;exitX=0.5;exitY=1;exitDx=0;exitDy=0;entryX=0.5;entryY=0;entryDx=0;entryDy=0;strokeColor=#E6E6E6;strokeWidth=3;" edge="1" parent="1" source="STGnz_FcKIcirEzFvU5I-5" target="STGnz_FcKIcirEzFvU5I-7">
          <mxGeometry width="50" height="50" relative="1" as="geometry">
            <mxPoint x="370" y="260" as="sourcePoint" />
            <mxPoint x="420" y="210" as="targetPoint" />
          </mxGeometry>
        </mxCell>
        <mxCell id="STGnz_FcKIcirEzFvU5I-15" value="" style="edgeStyle=orthogonalEdgeStyle;rounded=0;orthogonalLoop=1;jettySize=auto;html=1;strokeWidth=3;strokeColor=#E6E6E6;" edge="1" parent="1" source="STGnz_FcKIcirEzFvU5I-9" target="STGnz_FcKIcirEzFvU5I-12">
          <mxGeometry relative="1" as="geometry" />
        </mxCell>
        <mxCell id="STGnz_FcKIcirEzFvU5I-9" value="&lt;font style=&quot;font-size: 15px;&quot;&gt;Optimized Graph&lt;/font&gt;" style="rounded=1;whiteSpace=wrap;html=1;shadow=0;" vertex="1" parent="1">
          <mxGeometry x="250" y="380" width="230" height="60" as="geometry" />
        </mxCell>
        <mxCell id="STGnz_FcKIcirEzFvU5I-23" value="" style="edgeStyle=orthogonalEdgeStyle;rounded=0;orthogonalLoop=1;jettySize=auto;html=1;strokeWidth=3;strokeColor=#E6E6E6;" edge="1" parent="1" source="STGnz_FcKIcirEzFvU5I-12" target="STGnz_FcKIcirEzFvU5I-22">
          <mxGeometry relative="1" as="geometry" />
        </mxCell>
        <mxCell id="STGnz_FcKIcirEzFvU5I-12" value="&lt;span style=&quot;font-size: 15px;&quot;&gt;&lt;font color=&quot;#ffffff&quot;&gt;Kernel Lower&lt;/font&gt;&lt;/span&gt;" style="rounded=1;whiteSpace=wrap;html=1;shadow=0;fillColor=#ffcc99;strokeColor=#36393d;" vertex="1" parent="1">
          <mxGeometry x="250" y="480" width="230" height="60" as="geometry" />
        </mxCell>
        <mxCell id="STGnz_FcKIcirEzFvU5I-16" value="" style="endArrow=classic;html=1;rounded=0;dashed=1;" edge="1" parent="1">
          <mxGeometry width="50" height="50" relative="1" as="geometry">
            <mxPoint x="480" y="310" as="sourcePoint" />
            <mxPoint x="600" y="310" as="targetPoint" />
          </mxGeometry>
        </mxCell>
        <mxCell id="STGnz_FcKIcirEzFvU5I-17" value="" style="rounded=0;whiteSpace=wrap;html=1;fillColor=#FFFFFF;strokeColor=#36393d;" vertex="1" parent="1">
          <mxGeometry x="600" y="230" width="210" height="340" as="geometry" />
        </mxCell>
        <mxCell id="STGnz_FcKIcirEzFvU5I-19" value="&lt;font style=&quot;font-size: 15px;&quot;&gt;Subgraph Match&lt;/font&gt;" style="rounded=0;whiteSpace=wrap;html=1;" vertex="1" parent="1">
          <mxGeometry x="630" y="250" width="150" height="60" as="geometry" />
        </mxCell>
        <mxCell id="STGnz_FcKIcirEzFvU5I-20" value="&lt;span style=&quot;font-size: 15px;&quot;&gt;GEMM batch&lt;/span&gt;" style="rounded=0;whiteSpace=wrap;html=1;" vertex="1" parent="1">
          <mxGeometry x="630" y="320" width="150" height="60" as="geometry" />
        </mxCell>
        <mxCell id="STGnz_FcKIcirEzFvU5I-21" value="&lt;span style=&quot;font-size: 15px;&quot;&gt;Flash Attention&lt;/span&gt;" style="rounded=0;whiteSpace=wrap;html=1;" vertex="1" parent="1">
          <mxGeometry x="630" y="390" width="150" height="60" as="geometry" />
        </mxCell>
        <mxCell id="STGnz_FcKIcirEzFvU5I-25" value="" style="edgeStyle=orthogonalEdgeStyle;rounded=0;orthogonalLoop=1;jettySize=auto;html=1;strokeWidth=3;strokeColor=#E6E6E6;" edge="1" parent="1" source="STGnz_FcKIcirEzFvU5I-22" target="STGnz_FcKIcirEzFvU5I-24">
          <mxGeometry relative="1" as="geometry" />
        </mxCell>
        <mxCell id="STGnz_FcKIcirEzFvU5I-22" value="&lt;span style=&quot;font-size: 15px;&quot;&gt;Kernel Graph&lt;/span&gt;" style="rounded=1;whiteSpace=wrap;html=1;shadow=0;" vertex="1" parent="1">
          <mxGeometry x="250" y="580" width="230" height="60" as="geometry" />
        </mxCell>
        <mxCell id="STGnz_FcKIcirEzFvU5I-31" value="" style="edgeStyle=orthogonalEdgeStyle;rounded=0;orthogonalLoop=1;jettySize=auto;html=1;strokeWidth=3;strokeColor=#E6E6E6;" edge="1" parent="1" source="STGnz_FcKIcirEzFvU5I-24" target="STGnz_FcKIcirEzFvU5I-30">
          <mxGeometry relative="1" as="geometry" />
        </mxCell>
        <mxCell id="STGnz_FcKIcirEzFvU5I-24" value="" style="rounded=1;whiteSpace=wrap;html=1;" vertex="1" parent="1">
          <mxGeometry x="50" y="680" width="630" height="110" as="geometry" />
        </mxCell>
        <mxCell id="STGnz_FcKIcirEzFvU5I-26" value="&lt;font color=&quot;#ffffff&quot; style=&quot;font-size: 15px;&quot;&gt;tiling&lt;/font&gt;" style="rounded=1;whiteSpace=wrap;html=1;fillColor=#cdeb8b;strokeColor=#36393d;" vertex="1" parent="1">
          <mxGeometry x="100" y="705" width="130" height="60" as="geometry" />
        </mxCell>
        <mxCell id="STGnz_FcKIcirEzFvU5I-27" value="&lt;span style=&quot;font-size: 15px;&quot;&gt;&lt;font color=&quot;#ffffff&quot;&gt;Welder Pass&lt;/font&gt;&lt;/span&gt;" style="rounded=1;whiteSpace=wrap;html=1;fillColor=#ffcccc;strokeColor=#36393d;" vertex="1" parent="1">
          <mxGeometry x="260" y="705" width="230" height="60" as="geometry" />
        </mxCell>
        <mxCell id="STGnz_FcKIcirEzFvU5I-28" value="&lt;span style=&quot;font-size: 15px;&quot;&gt;...&lt;/span&gt;" style="rounded=1;whiteSpace=wrap;html=1;dashed=1;" vertex="1" parent="1">
          <mxGeometry x="520" y="705" width="130" height="60" as="geometry" />
        </mxCell>
        <mxCell id="STGnz_FcKIcirEzFvU5I-29" value="&lt;span style=&quot;font-size: 15px;&quot;&gt;...&lt;/span&gt;" style="rounded=0;whiteSpace=wrap;html=1;dashed=1;" vertex="1" parent="1">
          <mxGeometry x="630" y="470" width="150" height="60" as="geometry" />
        </mxCell>
        <mxCell id="STGnz_FcKIcirEzFvU5I-33" value="" style="edgeStyle=orthogonalEdgeStyle;rounded=0;orthogonalLoop=1;jettySize=auto;html=1;strokeWidth=3;strokeColor=#E6E6E6;" edge="1" parent="1" source="STGnz_FcKIcirEzFvU5I-30" target="STGnz_FcKIcirEzFvU5I-32">
          <mxGeometry relative="1" as="geometry" />
        </mxCell>
        <mxCell id="STGnz_FcKIcirEzFvU5I-30" value="&lt;font color=&quot;#ffffff&quot; style=&quot;font-size: 15px;&quot;&gt;Perf Profiler&lt;/font&gt;" style="rounded=1;whiteSpace=wrap;html=1;fillColor=#d5e8d4;strokeColor=#82b366;" vertex="1" parent="1">
          <mxGeometry x="250" y="830" width="230" height="60" as="geometry" />
        </mxCell>
        <mxCell id="STGnz_FcKIcirEzFvU5I-32" value="&lt;span style=&quot;font-size: 15px;&quot;&gt;Codegen&lt;/span&gt;" style="rounded=1;whiteSpace=wrap;html=1;shadow=0;" vertex="1" parent="1">
          <mxGeometry x="250" y="930" width="230" height="60" as="geometry" />
        </mxCell>
      </root>
    </mxGraphModel>
  </diagram>
</mxfile>
